<mxfile host="Electron" agent="Mozilla/5.0 (Windows NT 10.0; Win64; x64) AppleWebKit/537.36 (KHTML, like Gecko) draw.io/26.2.2 Chrome/134.0.6998.178 Electron/35.1.2 Safari/537.36" version="26.2.2">
  <diagram id="QDmd8LrB_lxBOB0TvEm6" name="UML Components">
    <mxGraphModel dx="1779" dy="1033" grid="0" gridSize="10" guides="1" tooltips="1" connect="1" arrows="1" fold="1" page="1" pageScale="1" pageWidth="1169" pageHeight="827" math="0" shadow="0">
      <root>
        <mxCell id="0" />
        <mxCell id="1" parent="0" />
        <mxCell id="H-qkVdVbfqo9zfunlF1C-18" style="rounded=0;orthogonalLoop=1;jettySize=auto;html=1;" edge="1" parent="1" source="P-aU9f7QzkivExIBkgLr-115" target="P-aU9f7QzkivExIBkgLr-131">
          <mxGeometry relative="1" as="geometry" />
        </mxCell>
        <mxCell id="H-qkVdVbfqo9zfunlF1C-19" style="edgeStyle=orthogonalEdgeStyle;rounded=0;orthogonalLoop=1;jettySize=auto;html=1;" edge="1" parent="1" source="P-aU9f7QzkivExIBkgLr-115" target="P-aU9f7QzkivExIBkgLr-129">
          <mxGeometry relative="1" as="geometry" />
        </mxCell>
        <mxCell id="H-qkVdVbfqo9zfunlF1C-20" style="rounded=0;orthogonalLoop=1;jettySize=auto;html=1;" edge="1" parent="1" source="P-aU9f7QzkivExIBkgLr-115" target="P-aU9f7QzkivExIBkgLr-130">
          <mxGeometry relative="1" as="geometry" />
        </mxCell>
        <mxCell id="H-qkVdVbfqo9zfunlF1C-3" style="edgeStyle=orthogonalEdgeStyle;rounded=0;orthogonalLoop=1;jettySize=auto;html=1;" edge="1" parent="1" source="P-aU9f7QzkivExIBkgLr-122" target="H-qkVdVbfqo9zfunlF1C-2">
          <mxGeometry relative="1" as="geometry" />
        </mxCell>
        <mxCell id="H-qkVdVbfqo9zfunlF1C-11" style="edgeStyle=orthogonalEdgeStyle;rounded=0;orthogonalLoop=1;jettySize=auto;html=1;" edge="1" parent="1" source="P-aU9f7QzkivExIBkgLr-122" target="H-qkVdVbfqo9zfunlF1C-9">
          <mxGeometry relative="1" as="geometry">
            <Array as="points">
              <mxPoint x="870" y="413" />
              <mxPoint x="870" y="413" />
            </Array>
          </mxGeometry>
        </mxCell>
        <mxCell id="P-aU9f7QzkivExIBkgLr-122" value="&lt;div&gt;&amp;lt;component&amp;gt;&lt;/div&gt;&lt;b&gt;Srv.Identity&lt;/b&gt;&lt;div&gt;(OpenIddict)&lt;/div&gt;" style="shape=module;align=left;spacingLeft=20;align=center;verticalAlign=middle;whiteSpace=wrap;html=1;strokeColor=default;fontFamily=Helvetica;fontSize=12;fontColor=default;labelBackgroundColor=none;fillColor=default;strokeWidth=2;" parent="1" vertex="1">
          <mxGeometry x="720" y="388" width="120" height="50" as="geometry" />
        </mxCell>
        <mxCell id="P-aU9f7QzkivExIBkgLr-138" style="edgeStyle=orthogonalEdgeStyle;rounded=0;orthogonalLoop=1;jettySize=auto;html=1;fontFamily=Helvetica;fontSize=12;fontColor=default;labelBackgroundColor=none;" parent="1" source="P-aU9f7QzkivExIBkgLr-123" target="P-aU9f7QzkivExIBkgLr-133" edge="1">
          <mxGeometry relative="1" as="geometry" />
        </mxCell>
        <mxCell id="P-aU9f7QzkivExIBkgLr-123" value="&lt;div&gt;&amp;lt;component&amp;gt;&lt;/div&gt;&lt;b&gt;Srv.Admin&lt;/b&gt;" style="shape=module;align=left;spacingLeft=20;align=center;verticalAlign=middle;whiteSpace=wrap;html=1;strokeColor=default;fontFamily=Helvetica;fontSize=12;fontColor=default;labelBackgroundColor=none;fillColor=default;strokeWidth=2;" parent="1" vertex="1">
          <mxGeometry x="260" y="520" width="120" height="50" as="geometry" />
        </mxCell>
        <mxCell id="P-aU9f7QzkivExIBkgLr-137" style="edgeStyle=orthogonalEdgeStyle;rounded=0;orthogonalLoop=1;jettySize=auto;html=1;fontFamily=Helvetica;fontSize=12;fontColor=default;labelBackgroundColor=none;" parent="1" source="P-aU9f7QzkivExIBkgLr-124" target="P-aU9f7QzkivExIBkgLr-134" edge="1">
          <mxGeometry relative="1" as="geometry" />
        </mxCell>
        <mxCell id="P-aU9f7QzkivExIBkgLr-124" value="&lt;div&gt;&amp;lt;component&amp;gt;&lt;/div&gt;&lt;b&gt;Srv.Notify&lt;/b&gt;" style="shape=module;align=left;spacingLeft=20;align=center;verticalAlign=middle;whiteSpace=wrap;html=1;strokeColor=default;fontFamily=Helvetica;fontSize=12;fontColor=default;labelBackgroundColor=none;fillColor=default;strokeWidth=2;" parent="1" vertex="1">
          <mxGeometry x="410" y="520" width="120" height="50" as="geometry" />
        </mxCell>
        <mxCell id="P-aU9f7QzkivExIBkgLr-136" style="edgeStyle=orthogonalEdgeStyle;rounded=0;orthogonalLoop=1;jettySize=auto;html=1;fontFamily=Helvetica;fontSize=12;fontColor=default;labelBackgroundColor=none;" parent="1" source="P-aU9f7QzkivExIBkgLr-125" target="P-aU9f7QzkivExIBkgLr-135" edge="1">
          <mxGeometry relative="1" as="geometry" />
        </mxCell>
        <mxCell id="P-aU9f7QzkivExIBkgLr-125" value="&lt;div&gt;&amp;lt;component&amp;gt;&lt;/div&gt;&lt;b&gt;Srv.Payment&lt;/b&gt;" style="shape=module;align=left;spacingLeft=20;align=center;verticalAlign=middle;whiteSpace=wrap;html=1;strokeColor=default;fontFamily=Helvetica;fontSize=12;fontColor=default;labelBackgroundColor=none;fillColor=default;strokeWidth=2;" parent="1" vertex="1">
          <mxGeometry x="560" y="520" width="120" height="50" as="geometry" />
        </mxCell>
        <mxCell id="H-qkVdVbfqo9zfunlF1C-5" style="edgeStyle=orthogonalEdgeStyle;rounded=0;orthogonalLoop=1;jettySize=auto;html=1;" edge="1" parent="1" source="P-aU9f7QzkivExIBkgLr-127" target="P-aU9f7QzkivExIBkgLr-122">
          <mxGeometry relative="1" as="geometry" />
        </mxCell>
        <mxCell id="H-qkVdVbfqo9zfunlF1C-6" style="edgeStyle=orthogonalEdgeStyle;rounded=0;orthogonalLoop=1;jettySize=auto;html=1;" edge="1" parent="1" source="P-aU9f7QzkivExIBkgLr-127" target="P-aU9f7QzkivExIBkgLr-124">
          <mxGeometry relative="1" as="geometry" />
        </mxCell>
        <mxCell id="H-qkVdVbfqo9zfunlF1C-7" style="rounded=0;orthogonalLoop=1;jettySize=auto;html=1;" edge="1" parent="1" source="P-aU9f7QzkivExIBkgLr-127" target="P-aU9f7QzkivExIBkgLr-125">
          <mxGeometry relative="1" as="geometry" />
        </mxCell>
        <mxCell id="H-qkVdVbfqo9zfunlF1C-8" style="rounded=0;orthogonalLoop=1;jettySize=auto;html=1;" edge="1" parent="1" source="P-aU9f7QzkivExIBkgLr-127" target="P-aU9f7QzkivExIBkgLr-123">
          <mxGeometry relative="1" as="geometry" />
        </mxCell>
        <mxCell id="P-aU9f7QzkivExIBkgLr-127" value="&lt;div&gt;&amp;lt;component&amp;gt;&lt;/div&gt;&lt;b&gt;API Gateway&lt;/b&gt;&lt;div&gt;(YARP)&lt;/div&gt;" style="shape=module;align=left;spacingLeft=20;align=center;verticalAlign=middle;whiteSpace=wrap;html=1;strokeColor=default;fontFamily=Helvetica;fontSize=12;fontColor=default;labelBackgroundColor=none;fillColor=default;spacing=0;strokeWidth=2;" parent="1" vertex="1">
          <mxGeometry x="410" y="388" width="120" height="50" as="geometry" />
        </mxCell>
        <mxCell id="P-aU9f7QzkivExIBkgLr-128" value="&lt;div&gt;&amp;lt;database&amp;gt;&lt;/div&gt;&lt;b&gt;Caching&lt;/b&gt;&lt;div&gt;(Redis)&lt;/div&gt;" style="shape=module;align=left;spacingLeft=20;align=center;verticalAlign=middle;whiteSpace=wrap;html=1;strokeColor=default;fontFamily=Helvetica;fontSize=12;fontColor=default;labelBackgroundColor=none;fillColor=default;strokeWidth=2;" parent="1" vertex="1">
          <mxGeometry x="900" y="400" width="120" height="50" as="geometry" />
        </mxCell>
        <mxCell id="H-qkVdVbfqo9zfunlF1C-16" style="rounded=0;orthogonalLoop=1;jettySize=auto;html=1;exitX=0.5;exitY=1;exitDx=0;exitDy=0;entryX=0.5;entryY=0;entryDx=0;entryDy=0;" edge="1" parent="1" source="P-aU9f7QzkivExIBkgLr-129" target="P-aU9f7QzkivExIBkgLr-127">
          <mxGeometry relative="1" as="geometry" />
        </mxCell>
        <mxCell id="P-aU9f7QzkivExIBkgLr-129" value="&lt;div&gt;&amp;lt;component&amp;gt;&lt;/div&gt;&lt;b&gt;Web SPA&lt;/b&gt;&lt;br&gt;&lt;div&gt;(Angular)&lt;/div&gt;" style="shape=module;align=left;spacingLeft=20;align=center;verticalAlign=middle;whiteSpace=wrap;html=1;strokeColor=default;fontFamily=Helvetica;fontSize=12;fontColor=default;labelBackgroundColor=none;fillColor=default;spacing=0;strokeWidth=2;" parent="1" vertex="1">
          <mxGeometry x="410" y="270" width="120" height="50" as="geometry" />
        </mxCell>
        <mxCell id="H-qkVdVbfqo9zfunlF1C-17" style="rounded=0;orthogonalLoop=1;jettySize=auto;html=1;entryX=0.75;entryY=0;entryDx=0;entryDy=0;" edge="1" parent="1" source="P-aU9f7QzkivExIBkgLr-130" target="P-aU9f7QzkivExIBkgLr-127">
          <mxGeometry relative="1" as="geometry" />
        </mxCell>
        <mxCell id="P-aU9f7QzkivExIBkgLr-130" value="&lt;div&gt;&amp;lt;component&amp;gt;&lt;/div&gt;&lt;b&gt;Mobile App&lt;/b&gt;&lt;div&gt;(Flutter)&lt;/div&gt;" style="shape=module;align=left;spacingLeft=20;align=center;verticalAlign=middle;whiteSpace=wrap;html=1;strokeColor=default;fontFamily=Helvetica;fontSize=12;fontColor=default;labelBackgroundColor=none;fillColor=default;spacing=0;strokeWidth=2;" parent="1" vertex="1">
          <mxGeometry x="560" y="270" width="120" height="50" as="geometry" />
        </mxCell>
        <mxCell id="H-qkVdVbfqo9zfunlF1C-15" style="rounded=0;orthogonalLoop=1;jettySize=auto;html=1;entryX=0.25;entryY=0;entryDx=0;entryDy=0;" edge="1" parent="1" source="P-aU9f7QzkivExIBkgLr-131" target="P-aU9f7QzkivExIBkgLr-127">
          <mxGeometry relative="1" as="geometry" />
        </mxCell>
        <mxCell id="P-aU9f7QzkivExIBkgLr-131" value="&lt;div&gt;&amp;lt;component&amp;gt;&lt;/div&gt;&lt;b&gt;Desktop App&lt;/b&gt;&lt;div&gt;(Electron)&lt;/div&gt;" style="shape=module;align=left;spacingLeft=20;align=center;verticalAlign=middle;whiteSpace=wrap;html=1;strokeColor=default;fontFamily=Helvetica;fontSize=12;fontColor=default;labelBackgroundColor=none;fillColor=default;spacing=0;strokeWidth=2;" parent="1" vertex="1">
          <mxGeometry x="260" y="270" width="120" height="50" as="geometry" />
        </mxCell>
        <mxCell id="P-aU9f7QzkivExIBkgLr-132" value="&lt;div style=&quot;line-height: 70%;&quot;&gt;Data Storage Services&lt;/div&gt;" style="shape=umlFrame;whiteSpace=wrap;html=1;pointerEvents=0;strokeColor=#666666;align=left;verticalAlign=top;fontFamily=Helvetica;fontSize=12;fontColor=#333333;labelBackgroundColor=none;fillColor=#f5f5f5;width=140;height=20;spacingLeft=5;" parent="1" vertex="1">
          <mxGeometry x="220" y="640" width="640" height="120" as="geometry" />
        </mxCell>
        <mxCell id="P-aU9f7QzkivExIBkgLr-133" value="&lt;div&gt;&amp;lt;database&amp;gt;&lt;/div&gt;&lt;b&gt;Db.Admin&lt;/b&gt;&lt;div&gt;(MongoDB)&lt;/div&gt;" style="shape=module;align=left;spacingLeft=20;align=center;verticalAlign=middle;whiteSpace=wrap;html=1;strokeColor=default;fontFamily=Helvetica;fontSize=12;fontColor=default;labelBackgroundColor=none;fillColor=default;strokeWidth=2;" parent="1" vertex="1">
          <mxGeometry x="260" y="680" width="120" height="50" as="geometry" />
        </mxCell>
        <mxCell id="P-aU9f7QzkivExIBkgLr-134" value="&lt;div&gt;&amp;lt;database&amp;gt;&lt;/div&gt;&lt;b&gt;Db.Notify&lt;/b&gt;&lt;div&gt;(MongoDB)&lt;/div&gt;" style="shape=module;align=left;spacingLeft=20;align=center;verticalAlign=middle;whiteSpace=wrap;html=1;strokeColor=default;fontFamily=Helvetica;fontSize=12;fontColor=default;labelBackgroundColor=none;fillColor=default;strokeWidth=2;" parent="1" vertex="1">
          <mxGeometry x="410" y="680" width="120" height="50" as="geometry" />
        </mxCell>
        <mxCell id="P-aU9f7QzkivExIBkgLr-135" value="&lt;div&gt;&amp;lt;database&amp;gt;&lt;/div&gt;&lt;b&gt;Db.Payment&lt;/b&gt;&lt;div&gt;(SQL Server)&lt;/div&gt;" style="shape=module;align=left;spacingLeft=20;align=center;verticalAlign=middle;whiteSpace=wrap;html=1;strokeColor=default;fontFamily=Helvetica;fontSize=12;fontColor=default;labelBackgroundColor=none;fillColor=default;strokeWidth=2;" parent="1" vertex="1">
          <mxGeometry x="560" y="680" width="120" height="50" as="geometry" />
        </mxCell>
        <mxCell id="P-aU9f7QzkivExIBkgLr-140" value="&lt;div&gt;&amp;lt;component&amp;gt;&lt;/div&gt;&lt;b&gt;Email Provider&lt;/b&gt;" style="shape=module;align=left;spacingLeft=20;align=center;verticalAlign=middle;whiteSpace=wrap;html=1;strokeColor=default;fontFamily=Helvetica;fontSize=12;fontColor=default;labelBackgroundColor=none;fillColor=default;spacing=0;strokeWidth=2;" parent="1" vertex="1">
          <mxGeometry x="900" y="540" width="120" height="50" as="geometry" />
        </mxCell>
        <mxCell id="P-aU9f7QzkivExIBkgLr-141" value="&lt;div&gt;&amp;lt;component&amp;gt;&lt;/div&gt;&lt;b&gt;SMS Provider&lt;/b&gt;" style="shape=module;align=left;spacingLeft=20;align=center;verticalAlign=middle;whiteSpace=wrap;html=1;strokeColor=default;fontFamily=Helvetica;fontSize=12;fontColor=default;labelBackgroundColor=none;fillColor=default;spacing=0;strokeWidth=2;" parent="1" vertex="1">
          <mxGeometry x="900" y="610" width="120" height="50" as="geometry" />
        </mxCell>
        <mxCell id="P-aU9f7QzkivExIBkgLr-142" value="&lt;div&gt;&amp;lt;component&amp;gt;&lt;/div&gt;&lt;b&gt;Payment Portal&lt;/b&gt;" style="shape=module;align=left;spacingLeft=20;align=center;verticalAlign=middle;whiteSpace=wrap;html=1;strokeColor=default;fontFamily=Helvetica;fontSize=12;fontColor=default;labelBackgroundColor=none;fillColor=default;spacing=0;strokeWidth=2;" parent="1" vertex="1">
          <mxGeometry x="900" y="680" width="120" height="50" as="geometry" />
        </mxCell>
        <mxCell id="H-qkVdVbfqo9zfunlF1C-2" value="&lt;div&gt;&amp;lt;database&amp;gt;&lt;/div&gt;&lt;b&gt;Db.Identity&lt;/b&gt;&lt;div&gt;(SQL Server)&lt;/div&gt;" style="shape=module;align=left;spacingLeft=20;align=center;verticalAlign=middle;whiteSpace=wrap;html=1;strokeColor=default;fontFamily=Helvetica;fontSize=12;fontColor=default;labelBackgroundColor=none;fillColor=default;strokeWidth=2;" vertex="1" parent="1">
          <mxGeometry x="720" y="680" width="120" height="50" as="geometry" />
        </mxCell>
        <mxCell id="H-qkVdVbfqo9zfunlF1C-28" style="shape=connector;rounded=0;orthogonalLoop=1;jettySize=auto;html=1;strokeColor=default;align=center;verticalAlign=middle;fontFamily=Helvetica;fontSize=11;fontColor=default;labelBackgroundColor=default;endArrow=classic;edgeStyle=orthogonalEdgeStyle;" edge="1" parent="1" source="H-qkVdVbfqo9zfunlF1C-4" target="H-qkVdVbfqo9zfunlF1C-21">
          <mxGeometry relative="1" as="geometry">
            <Array as="points">
              <mxPoint x="210" y="560" />
              <mxPoint x="210" y="560" />
            </Array>
          </mxGeometry>
        </mxCell>
        <mxCell id="H-qkVdVbfqo9zfunlF1C-4" value=".NET Aspire Orchestrator" style="shape=umlFrame;whiteSpace=wrap;html=1;pointerEvents=0;strokeColor=#666666;align=left;verticalAlign=middle;fontFamily=Helvetica;fontSize=12;fontColor=#333333;labelBackgroundColor=none;fillColor=#f5f5f5;width=160;height=20;spacing=0;spacingLeft=5;" vertex="1" parent="1">
          <mxGeometry x="220" y="360" width="640" height="260" as="geometry" />
        </mxCell>
        <mxCell id="H-qkVdVbfqo9zfunlF1C-14" style="edgeStyle=orthogonalEdgeStyle;rounded=0;orthogonalLoop=1;jettySize=auto;html=1;" edge="1" parent="1" source="P-aU9f7QzkivExIBkgLr-126" target="H-qkVdVbfqo9zfunlF1C-9">
          <mxGeometry relative="1" as="geometry">
            <Array as="points">
              <mxPoint x="840" y="540" />
              <mxPoint x="840" y="540" />
            </Array>
          </mxGeometry>
        </mxCell>
        <mxCell id="P-aU9f7QzkivExIBkgLr-126" value="&lt;div style=&quot;line-height: 70%;&quot;&gt;Backend Services&lt;/div&gt;" style="shape=umlFrame;whiteSpace=wrap;html=1;pointerEvents=0;strokeColor=#666666;align=left;verticalAlign=top;fontFamily=Helvetica;fontSize=12;fontColor=#333333;labelBackgroundColor=none;fillColor=#f5f5f5;width=130;height=20;spacingLeft=5;" parent="1" vertex="1">
          <mxGeometry x="240" y="480" width="460" height="120" as="geometry" />
        </mxCell>
        <mxCell id="H-qkVdVbfqo9zfunlF1C-9" value="Infrastructure &amp;amp; External Services" style="shape=umlFrame;whiteSpace=wrap;html=1;pointerEvents=0;strokeColor=#666666;align=left;verticalAlign=middle;fontFamily=Helvetica;fontSize=12;fontColor=#333333;labelBackgroundColor=none;fillColor=#f5f5f5;width=120;height=30;spacing=0;spacingLeft=5;" vertex="1" parent="1">
          <mxGeometry x="880" y="360" width="160" height="400" as="geometry" />
        </mxCell>
        <mxCell id="H-qkVdVbfqo9zfunlF1C-10" value="&lt;div&gt;&amp;lt;component&amp;gt;&lt;/div&gt;&lt;b&gt;Event Queue&lt;/b&gt;&lt;br&gt;&lt;div&gt;(Kafka)&lt;/div&gt;" style="shape=module;align=left;spacingLeft=20;align=center;verticalAlign=middle;whiteSpace=wrap;html=1;strokeColor=default;fontFamily=Helvetica;fontSize=12;fontColor=default;labelBackgroundColor=none;fillColor=default;strokeWidth=2;" vertex="1" parent="1">
          <mxGeometry x="900" y="469" width="120" height="50" as="geometry" />
        </mxCell>
        <mxCell id="P-aU9f7QzkivExIBkgLr-115" value="&lt;span style=&quot;background-color: light-dark(#ffffff, var(--ge-dark-color, #121212));&quot;&gt;User&lt;/span&gt;" style="shape=umlActor;verticalLabelPosition=bottom;verticalAlign=top;html=1;labelBackgroundColor=none;fontStyle=1" parent="1" vertex="1">
          <mxGeometry x="455" y="140" width="30" height="60" as="geometry" />
        </mxCell>
        <mxCell id="H-qkVdVbfqo9zfunlF1C-21" value="DevOps Infrastructure" style="shape=umlFrame;whiteSpace=wrap;html=1;pointerEvents=0;strokeColor=#666666;align=left;verticalAlign=middle;fontFamily=Helvetica;fontSize=12;fontColor=#333333;labelBackgroundColor=none;fillColor=#f5f5f5;width=140;height=20;spacing=0;spacingLeft=5;" vertex="1" parent="1">
          <mxGeometry x="20" y="360" width="160" height="400" as="geometry" />
        </mxCell>
        <mxCell id="H-qkVdVbfqo9zfunlF1C-22" value="&lt;div&gt;&amp;lt;component&amp;gt;&lt;/div&gt;&lt;b&gt;Monitoring&lt;/b&gt;&lt;div&gt;(Kibana)&lt;/div&gt;" style="shape=module;align=left;spacingLeft=20;align=center;verticalAlign=middle;whiteSpace=wrap;html=1;strokeColor=default;fontFamily=Helvetica;fontSize=12;fontColor=default;labelBackgroundColor=none;fillColor=default;strokeWidth=2;" vertex="1" parent="1">
          <mxGeometry x="40" y="400" width="120" height="50" as="geometry" />
        </mxCell>
        <mxCell id="H-qkVdVbfqo9zfunlF1C-23" value="&lt;div&gt;&amp;lt;component&amp;gt;&lt;/div&gt;&lt;b&gt;Logging&lt;/b&gt;&lt;div&gt;(Elasticsearch)&lt;/div&gt;" style="shape=module;align=left;spacingLeft=20;align=center;verticalAlign=middle;whiteSpace=wrap;html=1;strokeColor=default;fontFamily=Helvetica;fontSize=12;fontColor=default;labelBackgroundColor=none;fillColor=default;strokeWidth=2;" vertex="1" parent="1">
          <mxGeometry x="40" y="469" width="120" height="50" as="geometry" />
        </mxCell>
        <mxCell id="H-qkVdVbfqo9zfunlF1C-24" value="&lt;div&gt;&amp;lt;component&amp;gt;&lt;/div&gt;&lt;div&gt;&lt;b&gt;CICD Pipeline&lt;/b&gt;&lt;/div&gt;&lt;div&gt;(GitHub Action)&lt;/div&gt;" style="shape=module;align=left;spacingLeft=20;align=center;verticalAlign=middle;whiteSpace=wrap;html=1;strokeColor=default;fontFamily=Helvetica;fontSize=12;fontColor=default;labelBackgroundColor=none;fillColor=default;strokeWidth=2;" vertex="1" parent="1">
          <mxGeometry x="40" y="540" width="120" height="50" as="geometry" />
        </mxCell>
        <mxCell id="H-qkVdVbfqo9zfunlF1C-25" value="&lt;div&gt;&amp;lt;component&amp;gt;&lt;/div&gt;&lt;div&gt;&lt;b&gt;Code Quality&lt;/b&gt;&lt;/div&gt;&lt;div&gt;(Sonar Qube)&lt;/div&gt;" style="shape=module;align=left;spacingLeft=20;align=center;verticalAlign=middle;whiteSpace=wrap;html=1;strokeColor=default;fontFamily=Helvetica;fontSize=12;fontColor=default;labelBackgroundColor=none;fillColor=default;strokeWidth=2;" vertex="1" parent="1">
          <mxGeometry x="40" y="610" width="120" height="50" as="geometry" />
        </mxCell>
        <mxCell id="H-qkVdVbfqo9zfunlF1C-27" style="edgeStyle=none;shape=connector;rounded=0;orthogonalLoop=1;jettySize=auto;html=1;strokeColor=default;align=center;verticalAlign=middle;fontFamily=Helvetica;fontSize=11;fontColor=default;labelBackgroundColor=default;endArrow=classic;" edge="1" parent="1" source="H-qkVdVbfqo9zfunlF1C-26" target="H-qkVdVbfqo9zfunlF1C-21">
          <mxGeometry relative="1" as="geometry" />
        </mxCell>
        <mxCell id="H-qkVdVbfqo9zfunlF1C-26" value="&lt;span style=&quot;background-color: light-dark(#ffffff, var(--ge-dark-color, #121212));&quot;&gt;DevOps&lt;/span&gt;" style="shape=umlActor;verticalLabelPosition=bottom;verticalAlign=top;html=1;labelBackgroundColor=none;fontStyle=1" vertex="1" parent="1">
          <mxGeometry x="85" y="140" width="30" height="60" as="geometry" />
        </mxCell>
      </root>
    </mxGraphModel>
  </diagram>
</mxfile>
